<svg width="14" height="15" viewBox="0 0 14 15" fill="none" xmlns="http://www.w3.org/2000/svg">
<path d="M8.46963 9.43213H0.70742V7.3916H8.41836C9.10879 7.3916 9.66592 7.28564 10.0897 7.07373C10.5136 6.85498 10.8246 6.55078 11.0229 6.16113C11.2211 5.77148 11.3202 5.31689 11.3202 4.79736C11.3202 4.33252 11.2211 3.89844 11.0229 3.49512C10.8246 3.0918 10.517 2.76367 10.1 2.51074C9.68301 2.25098 9.13955 2.12109 8.46963 2.12109H5.37295V15H2.79922V0.0703125H8.46963C9.61806 0.0703125 10.5956 0.271973 11.4022 0.675293C12.2089 1.07861 12.8275 1.63574 13.2582 2.34668C13.6889 3.05078 13.9042 3.86084 13.9042 4.77686C13.9042 5.75439 13.6854 6.5918 13.2479 7.28906C12.8173 7.97949 12.1952 8.50928 11.3817 8.87842C10.5751 9.24756 9.60439 9.43213 8.46963 9.43213ZM8.71572 10.5293V12.5698H0.70742V10.5293H8.71572Z" fill="black"/>
</svg>
